<svg xmlns="http://www.w3.org/2000/svg" width="30" height="30" viewBox="0 0 30 30"><defs><style>.a{fill:#575fff;}.b{fill:#fff;}</style></defs><path class="a" d="M15,0A15,15,0,1,1,0,15,15,15,0,0,1,15,0Z"/><path class="b" d="M7.033,16.817a.366.366,0,0,1-.018.515l-.79.738a.363.363,0,0,1-.513-.019L1.115,13.1a.366.366,0,0,1,.019-.515l.791-.737a.363.363,0,0,1,.513.019ZM12.9,7.493a.366.366,0,0,1-.019.515L7.913,12.65a.363.363,0,0,1-.513-.019l-1.186-1.28a.366.366,0,0,1,.019-.515L11.2,6.194a.362.362,0,0,1,.513.019L12.9,7.493ZM8.724,15.237a.366.366,0,0,1-.019.515l-.791.738a.363.363,0,0,1-.513-.019l-4.6-4.955A.366.366,0,0,1,2.825,11l.789-.738a.363.363,0,0,1,.513.019Zm7.657-7.566a.366.366,0,0,1-.019.515l-.79.738a.364.364,0,0,1-.513-.018l-4.6-4.954a.366.366,0,0,1,.018-.515l.792-.74a.362.362,0,0,1,.513.019l4.6,4.956Zm1.688-1.578a.367.367,0,0,1-.019.515l-.789.738a.362.362,0,0,1-.513-.018l-4.6-4.957a.367.367,0,0,1,.018-.515l.79-.739a.362.362,0,0,1,.512.018Z" transform="translate(5.665 5.664)"/></svg>