<svg xmlns="http://www.w3.org/2000/svg" width="50" height="50" viewBox="0 0 50 50"><defs><style>.a{fill:#575fff;}.b{fill:#fff;}</style></defs><g transform="translate(-1138 -1288)"><path class="a" d="M25,0A25,25,0,1,1,0,25,25,25,0,0,1,25,0Z" transform="translate(1138 1288)"/><path class="b" d="M9.788,24.051a.534.534,0,0,1-.026.75L8.61,25.878a.529.529,0,0,1-.748-.027l-6.7-7.225a.534.534,0,0,1,.027-.75L2.339,16.8a.529.529,0,0,1,.748.027Zm8.554-13.594a.534.534,0,0,1-.027.75L11.07,17.975a.529.529,0,0,1-.748-.027L8.593,16.082a.534.534,0,0,1,.027-.75l7.243-6.768a.528.528,0,0,1,.747.027l1.731,1.866Zm-6.089,11.29a.534.534,0,0,1-.027.75l-1.153,1.076a.529.529,0,0,1-.748-.027l-6.7-7.225a.534.534,0,0,1,.026-.75L4.8,14.5a.529.529,0,0,1,.748.027ZM23.416,10.716a.534.534,0,0,1-.028.75l-1.152,1.076a.53.53,0,0,1-.748-.026l-6.7-7.223a.533.533,0,0,1,.026-.75l1.155-1.078a.528.528,0,0,1,.747.027l6.7,7.225Zm2.461-2.3a.535.535,0,0,1-.027.751L24.7,10.243a.528.528,0,0,1-.747-.026l-6.7-7.226a.535.535,0,0,1,.026-.751L18.43,1.162a.527.527,0,0,1,.747.026Z" transform="translate(1149.982 1299.981)"/></g></svg>