<svg xmlns="http://www.w3.org/2000/svg" width="30" height="30" viewBox="0 0 30 30"><path d="M15,0A15,15,0,1,1,0,15,15,15,0,0,1,15,0Z" fill="#575fff"/><path d="M15,12.861c-.938,0-1.047-1.072-2.5-1.072s-1.568,1.072-2.5,1.072-1.053-1.072-2.5-1.072c-1.435,0-1.581,1.072-2.5,1.072-.943,0-1.045-1.072-2.5-1.072S.941,12.861,0,12.861V10.182A1.608,1.608,0,0,1,1.608,8.574h.536V3.751H4.287V8.574H6.43V3.751H8.574V8.574h2.143V3.751h2.143V8.574H13.4A1.608,1.608,0,0,1,15,10.182Zm0,4.287H0V13.933c1.452,0,1.566-1.072,2.5-1.072s1.047,1.072,2.5,1.072c1.435,0,1.581-1.072,2.5-1.072.943,0,1.045,1.072,2.5,1.072s1.566-1.072,2.5-1.072c.921,0,1.047,1.072,2.5,1.072ZM3.215,3.215A1.068,1.068,0,0,1,2.143,2.143c0-1.038,1.072-.77,1.072-2.143.4,0,1.072.988,1.072,1.876S3.81,3.215,3.215,3.215Zm4.287,0A1.068,1.068,0,0,1,6.43,2.143C6.43,1.105,7.5,1.373,7.5,0c.4,0,1.072.988,1.072,1.876S8.1,3.215,7.5,3.215Zm4.287,0a1.068,1.068,0,0,1-1.072-1.072c0-1.038,1.072-.77,1.072-2.143.4,0,1.072.988,1.072,1.876S12.384,3.215,11.789,3.215Z" transform="translate(7.465 6.683)" fill="#fff"/></svg>