<svg xmlns="http://www.w3.org/2000/svg" width="50" height="50" viewBox="0 0 50 50"><defs><style>.a{fill:#575fff;}.b{fill:#fff;}</style></defs><g transform="translate(-569 -1288)"><path class="a" d="M25,0A25,25,0,1,1,0,25,25,25,0,0,1,25,0Z" transform="translate(569 1288)"/><path class="b" d="M21.875,18.75c-1.368,0-1.526-1.562-3.638-1.562s-2.286,1.563-3.65,1.563-1.536-1.562-3.65-1.562c-2.092,0-2.306,1.563-3.638,1.563-1.374,0-1.524-1.562-3.65-1.562S1.372,18.75,0,18.75V14.844A2.344,2.344,0,0,1,2.344,12.5h.781V5.469H6.25V12.5H9.375V5.469H12.5V12.5h3.125V5.469H18.75V12.5h.781a2.344,2.344,0,0,1,2.344,2.344Zm0,6.25H0V20.313c2.117,0,2.284-1.562,3.65-1.562s1.526,1.563,3.65,1.563c2.092,0,2.306-1.562,3.638-1.562,1.374,0,1.523,1.563,3.65,1.563s2.284-1.562,3.65-1.562c1.342,0,1.526,1.563,3.638,1.563ZM4.688,4.688A1.558,1.558,0,0,1,3.125,3.125C3.125,1.611,4.688,2,4.688,0,5.273,0,6.25,1.44,6.25,2.734S5.554,4.688,4.688,4.688Zm6.25,0A1.558,1.558,0,0,1,9.375,3.125C9.375,1.611,10.938,2,10.938,0,11.523,0,12.5,1.44,12.5,2.734S11.8,4.688,10.938,4.688Zm6.25,0a1.558,1.558,0,0,1-1.562-1.562C15.625,1.611,17.188,2,17.188,0c.586,0,1.563,1.44,1.563,2.734S18.054,4.688,17.188,4.688Z" transform="translate(583 1301)"/></g></svg>