<svg xmlns="http://www.w3.org/2000/svg" width="50" height="50" viewBox="0 0 50 50"><defs><style>.a{fill:#575fff;}.b{fill:#fff;}</style></defs><g transform="translate(-499 -1288)"><path class="a" d="M25,0A25,25,0,1,1,0,25,25,25,0,0,1,25,0Z" transform="translate(499 1288)"/><path class="b" d="M11.426,4.231,10.151,5.966H7.173a2.778,2.778,0,0,0,3.249,1.708,13.346,13.346,0,0,1,2.873-.136c.926.222.54.223,2.2,1.556l8.278,6.827a1.1,1.1,0,0,0,1.6-.242,1.377,1.377,0,0,0-.033-1.854L14.866,5.442a3.586,3.586,0,0,1-1.048-2.1,3.976,3.976,0,0,0-3.647-2.6A4.1,4.1,0,0,0,7.007,2.823h3.144Zm7.188,12.737-3.239-5.622c-.128-.233-.451-.665-.717-.665H5.643c-.266,0-.589.432-.717.665L1.768,16.969H1.687c-.532,0-.967.193-.967.726V22.53c0,.532.435.726.967.726H2.816v1.692A1.326,1.326,0,0,0,4.105,26.4h.484a1.388,1.388,0,0,0,1.371-1.451V23.256h8.383v1.692a1.389,1.389,0,0,0,1.37,1.451H16.2a1.326,1.326,0,0,0,1.29-1.451V23.256h1.129c.532,0,.967-.193.967-.726V17.694C19.582,17.162,19.146,16.969,18.614,16.969ZM3.38,20.6a1.209,1.209,0,1,1,1.209-1.209A1.209,1.209,0,0,1,3.38,20.6Zm.967-3.627,1.96-4.1c.119-.238.434-.614.7-.614h6.287c.266,0,.581.376.7.614l1.96,4.1ZM16.922,20.6a1.209,1.209,0,1,1,1.209-1.209A1.209,1.209,0,0,1,16.922,20.6Z" transform="translate(511.28 1299.255)"/></g></svg>