<svg xmlns="http://www.w3.org/2000/svg" width="30" height="30" viewBox="0 0 30 30"><defs><style>.a{fill:#575fff;}.b{fill:#fff;}</style></defs><path class="a" d="M15,0A15,15,0,1,1,0,15,15,15,0,0,1,15,0Z"/><path class="b" d="M8.063,3.136l-.875,1.19H5.146A1.906,1.906,0,0,0,7.375,5.5,9.154,9.154,0,0,1,9.345,5.4c.635.152.371.153,1.51,1.067l5.678,4.683a.754.754,0,0,0,1.1-.166.944.944,0,0,0-.023-1.272l-7.187-5.75A2.459,2.459,0,0,1,9.7,2.529,2.727,2.727,0,0,0,7.2.745,2.809,2.809,0,0,0,5.032,2.17H7.189Zm4.931,8.737L10.772,8.017c-.088-.16-.309-.456-.492-.456H4.1c-.182,0-.4.3-.492.456L1.439,11.873H1.383c-.365,0-.663.133-.663.5v3.317c0,.365.3.5.663.5h.774v1.161a.909.909,0,0,0,.884,1h.332a.952.952,0,0,0,.94-1V16.186h5.75v1.161a.952.952,0,0,0,.94,1h.332a.909.909,0,0,0,.885-1V16.186h.774c.365,0,.663-.133.663-.5V12.371C13.657,12.006,13.359,11.873,12.994,11.873ZM2.545,14.361a.829.829,0,1,1,.829-.829.829.829,0,0,1-.829.829Zm.663-2.488L4.552,9.06c.082-.163.3-.421.48-.421H9.345c.182,0,.4.258.48.421l1.344,2.813Zm8.625,2.488a.829.829,0,1,1,.829-.829.829.829,0,0,1-.829.829Z" transform="translate(5.963 7.486)"/></svg>