<svg xmlns="http://www.w3.org/2000/svg" width="43.75" height="50" viewBox="0 0 43.75 50"><defs><style>.a{fill:#575fff;}</style></defs><path class="a" d="M42.578,15.625H1.172A1.172,1.172,0,0,1,0,14.453V10.938A4.687,4.687,0,0,1,4.688,6.25H9.375V1.172A1.172,1.172,0,0,1,10.547,0h3.906a1.172,1.172,0,0,1,1.172,1.172V6.25h12.5V1.172A1.172,1.172,0,0,1,29.3,0H33.2a1.172,1.172,0,0,1,1.172,1.172V6.25h4.688a4.687,4.687,0,0,1,4.688,4.688v3.516A1.172,1.172,0,0,1,42.578,15.625ZM1.172,18.75H42.578a1.172,1.172,0,0,1,1.172,1.172V45.313A4.687,4.687,0,0,1,39.063,50H4.688A4.687,4.687,0,0,1,0,45.313V19.922A1.172,1.172,0,0,1,1.172,18.75ZM33.72,28.12l-2.751-2.773a1.172,1.172,0,0,0-1.657-.007L18.957,35.612l-4.49-4.527a1.172,1.172,0,0,0-1.657-.007L10.036,33.83a1.172,1.172,0,0,0-.007,1.657L18.1,43.619a1.172,1.172,0,0,0,1.657.007l13.96-13.848a1.172,1.172,0,0,0,.007-1.657Z"/></svg>