<svg xmlns="http://www.w3.org/2000/svg" width="30" height="30" viewBox="0 0 30 30"><defs><style>.a{fill:#575fff;}</style></defs><path class="a" d="M29.2,9.375H.8a.758.758,0,0,1-.8-.7V6.562A3.034,3.034,0,0,1,3.214,3.75H6.429V.7a.758.758,0,0,1,.8-.7H9.911a.758.758,0,0,1,.8.7V3.75h8.571V.7a.758.758,0,0,1,.8-.7h2.679a.758.758,0,0,1,.8.7V3.75h3.214A3.034,3.034,0,0,1,30,6.562V8.672A.758.758,0,0,1,29.2,9.375ZM.8,11.25H29.2a.758.758,0,0,1,.8.7V27.188A3.034,3.034,0,0,1,26.786,30H3.214A3.034,3.034,0,0,1,0,27.188V11.953A.758.758,0,0,1,.8,11.25Zm22.319,5.622-1.886-1.664a.887.887,0,0,0-1.136,0L13,21.367,9.92,18.651a.887.887,0,0,0-1.136,0L6.882,20.3a.643.643,0,0,0,0,.994l5.531,4.879a.887.887,0,0,0,1.136,0l9.573-8.309a.643.643,0,0,0,0-.994Z"/></svg>