<svg xmlns="http://www.w3.org/2000/svg" width="30" height="26.25" viewBox="0 0 30 26.25"><defs><style>.a{fill:#ff5e5e;}</style></defs><path class="a" d="M27.188,2.25H2.813A2.813,2.813,0,0,0,0,5.062V25.688A2.813,2.813,0,0,0,2.813,28.5H27.188A2.813,2.813,0,0,0,30,25.688V5.062A2.813,2.813,0,0,0,27.188,2.25Zm-4.9,17.021a.721.721,0,0,1,0,1.02l-2.373,2.373a.721.721,0,0,1-1.02,0L15,18.732l-3.9,3.932a.721.721,0,0,1-1.02,0L7.711,20.291a.721.721,0,0,1,0-1.02l3.932-3.9-3.932-3.9a.721.721,0,0,1,0-1.02l2.373-2.373a.721.721,0,0,1,1.02,0L15,12.018l3.9-3.932a.721.721,0,0,1,1.02,0l2.373,2.373a.721.721,0,0,1,0,1.02l-3.932,3.9Z" transform="translate(0 -2.25)"/></svg>