<svg xmlns="http://www.w3.org/2000/svg" width="50" height="43.75" viewBox="0 0 50 43.75"><defs><style>.a{fill:#ff5e5e;}</style></defs><path class="a" d="M45.313,2.25H4.688A4.689,4.689,0,0,0,0,6.937V41.313A4.689,4.689,0,0,0,4.688,46H45.313A4.689,4.689,0,0,0,50,41.313V6.937A4.689,4.689,0,0,0,45.313,2.25ZM37.148,30.619a1.2,1.2,0,0,1,0,1.7l-3.955,3.955a1.2,1.2,0,0,1-1.7,0L25,29.721l-6.494,6.553a1.2,1.2,0,0,1-1.7,0l-3.955-3.955a1.2,1.2,0,0,1,0-1.7L19.4,24.125l-6.553-6.494a1.2,1.2,0,0,1,0-1.7l3.955-3.955a1.2,1.2,0,0,1,1.7,0L25,18.529l6.494-6.553a1.2,1.2,0,0,1,1.7,0l3.955,3.955a1.2,1.2,0,0,1,0,1.7L30.6,24.125Z" transform="translate(0 -2.25)"/></svg>