<svg xmlns="http://www.w3.org/2000/svg" width="50" height="50" viewBox="0 0 50 50"><defs><style>.a{fill:#575fff;}.b{fill:#fff;}</style></defs><g transform="translate(-709 -1288)"><path class="a" d="M25,0A25,25,0,1,1,0,25,25,25,0,0,1,25,0Z" transform="translate(709 1288)"/><path class="b" d="M20.833,20.583A2.081,2.081,0,0,0,22.906,18.5l.01-10.417A2.089,2.089,0,0,0,20.833,6H4.167A2.089,2.089,0,0,0,2.083,8.083V18.5a2.089,2.089,0,0,0,2.083,2.083H0v2.083H25V20.583ZM4.167,8.083H20.833V18.5H4.167Z" transform="translate(722 1299)"/></g></svg>