<svg xmlns="http://www.w3.org/2000/svg" width="30" height="30" viewBox="0 0 30 30"><defs><style>.a{fill:#575fff;}.b{fill:#fff;}</style></defs><path class="a" d="M15,0A15,15,0,1,1,0,15,15,15,0,0,1,15,0Z"/><path class="b" d="M11.789,5.359V4.287a4.287,4.287,0,1,0-8.574,0V5.359H0v9.11a2.679,2.679,0,0,0,2.679,2.679h9.646A2.679,2.679,0,0,0,15,14.468V5.359ZM5.359,4.287a2.143,2.143,0,0,1,4.287,0V5.359H5.359Zm5.359,4.019a.8.8,0,1,1,.8-.8A.8.8,0,0,1,10.717,8.306Zm-6.43,0a.8.8,0,1,1,.8-.8A.8.8,0,0,1,4.287,8.306Z" transform="translate(7.465 6.683)"/></svg>