<svg xmlns="http://www.w3.org/2000/svg" width="30" height="30" viewBox="0 0 30 30"><path d="M15,0A15,15,0,1,1,0,15,15,15,0,0,1,15,0Z" fill="#575fff"/><path d="M10.38,7.415c-1.924.071-6.7.613-6.7,4.643,0,4.327,5.465,4.5,7.251,1.707a18.224,18.224,0,0,0,1.79,1.849L14.968,13.4s-1.276-1-1.276-2.086V5.5c0-1-.968-3.252-4.438-3.252S3.931,4.423,3.931,6.372l2.9.269A2.462,2.462,0,0,1,8.977,4.684C10.586,4.68,10.38,5.862,10.38,7.415Zm0,3.43c0,3.161-3.327,2.687-3.327.68,0-1.865,2-2.241,3.327-2.284Zm5.374,6.461a9.6,9.6,0,0,1-6.9,2.648A11.63,11.63,0,0,1,.6,15.962c-.269-.3.04-.447.217-.328,2.9,1.758,7.421,4.655,14.72,1.2C15.833,16.685,16.063,16.911,15.754,17.306Zm1.573.087a3.294,3.294,0,0,1-.838,1.225c-.217.178-.375.107-.257-.15s.763-1.838.5-2.173-1.462-.17-1.9-.126-.514.079-.553-.012c-.091-.225.858-.613,1.482-.692s1.62-.032,1.818.225A2.894,2.894,0,0,1,17.327,17.393Z" transform="translate(6.189 5.981)" fill="#fff"/></svg>