<svg xmlns="http://www.w3.org/2000/svg" width="50" height="50" viewBox="0 0 50 50"><defs><style>.a{fill:#575fff;}.b{fill:#fff;}</style></defs><g transform="translate(-989 -1288)"><path class="a" d="M25,0A25,25,0,1,1,0,25,25,25,0,0,1,25,0Z" transform="translate(989 1288)"/><path class="b" d="M14.907,9.78c-2.806.1-9.765.893-9.765,6.769,0,6.308,7.968,6.568,10.572,2.489a26.569,26.569,0,0,0,2.61,2.7L21.6,18.508s-1.861-1.458-1.861-3.042V6.991c0-1.458-1.411-4.741-6.47-4.741S5.5,5.419,5.5,8.259l4.234.392C10.678,5.8,12.862,5.8,12.862,5.8,15.207,5.793,14.907,7.516,14.907,9.78Zm0,5c0,4.609-4.851,3.918-4.851.991,0-2.719,2.909-3.267,4.851-3.33ZM22.742,24.2a13.992,13.992,0,0,1-10.053,3.86c-6.02,0-10.629-4.119-12.041-5.819-.392-.444.058-.651.317-.478,4.223,2.564,10.819,6.787,21.46,1.746C22.857,23.3,23.192,23.624,22.742,24.2Zm2.293.127a4.8,4.8,0,0,1-1.221,1.786c-.317.259-.547.156-.374-.219s1.112-2.679.732-3.169-2.132-.248-2.765-.184-.749.115-.807-.017c-.133-.328,1.25-.893,2.16-1.008s2.362-.046,2.65.328A4.219,4.219,0,0,1,25.035,24.327Z" transform="translate(1001.506 1297.75)"/></g></svg>