<svg xmlns="http://www.w3.org/2000/svg" width="50" height="50" viewBox="0 0 50 50"><defs><style>.a{fill:#575fff;}.b{fill:#fff;}</style></defs><g transform="translate(-779 -1288)"><path class="a" d="M25,0A25,25,0,1,1,0,25,25,25,0,0,1,25,0Z" transform="translate(779 1288)"/><path class="b" d="M17.188,7.813V6.25a6.25,6.25,0,0,0-12.5,0V7.813H0V21.094A3.906,3.906,0,0,0,3.906,25H17.969a3.906,3.906,0,0,0,3.906-3.906V7.813ZM7.813,6.25a3.125,3.125,0,0,1,6.25,0V7.813H7.813Zm7.813,5.859A1.172,1.172,0,1,1,16.8,10.938,1.172,1.172,0,0,1,15.625,12.109Zm-9.375,0a1.172,1.172,0,1,1,1.172-1.172A1.172,1.172,0,0,1,6.25,12.109Z" transform="translate(793 1301)"/></g></svg>