<svg xmlns="http://www.w3.org/2000/svg" width="28.846" height="30" viewBox="0 0 28.846 30"><defs><style>.a{fill:#575fff;}.b{fill:#fff;}</style></defs><path class="a" d="M14.423,0c7.966,0,14.423,6.716,14.423,15S22.389,30,14.423,30,0,23.284,0,15,6.457,0,14.423,0Z" transform="translate(0 0)"/><path class="b" d="M16.647,2.371a1.825,1.825,0,0,0-1.29-1.293A15.491,15.491,0,0,0,11.734.563l5.414,5.421a15.532,15.532,0,0,0-.5-3.613ZM.5,15.9A1.825,1.825,0,0,0,1.791,17.2a15.491,15.491,0,0,0,3.623.515L0,12.289A15.532,15.532,0,0,0,.5,15.9ZM.145,10.084,7.62,17.572a10.986,10.986,0,0,0,9.386-9.383L9.528.7A10.979,10.979,0,0,0,.145,10.084Zm10.97-4.273a.278.278,0,0,1,.391,0L11.9,6.2a.278.278,0,0,1,0,.391l-.978.978.978.978a.278.278,0,0,1,0,.391l-.391.391a.278.278,0,0,1-.391,0l-.978-.978-.781.785.978.978a.278.278,0,0,1,0,.391l-.391.391a.278.278,0,0,1-.391,0l-.978-.978-.781.781.978.978a.278.278,0,0,1,0,.391l-.391.391a.278.278,0,0,1-.391,0l-.978-.978-.978.978a.278.278,0,0,1-.391,0l-.391-.391a.278.278,0,0,1,0-.391L6.23,10.7l-.978-.975a.278.278,0,0,1,0-.391l.391-.391a.278.278,0,0,1,.391,0l.978.978.781-.781-.978-.978a.278.278,0,0,1,0-.391L7.2,7.38a.278.278,0,0,1,.391,0l.978.978.781-.781L8.377,6.6a.278.278,0,0,1,0-.391l.391-.391a.278.278,0,0,1,.391,0l.978.978Z" transform="translate(6.083 6.121)"/></svg>