<svg xmlns="http://www.w3.org/2000/svg" width="50" height="50" viewBox="0 0 50 50"><defs><style>.a{fill:#575fff;}.b{fill:#fff;}</style></defs><g transform="translate(-450 -1165)"><path class="a" d="M25,0A25,25,0,1,1,0,25,25,25,0,0,1,25,0Z" transform="translate(450 1165)"/><path class="b" d="M24.269,3.2a2.661,2.661,0,0,0-1.88-1.885A22.584,22.584,0,0,0,17.107.563L25,8.466A22.645,22.645,0,0,0,24.269,3.2ZM.731,22.926a2.661,2.661,0,0,0,1.88,1.885,22.584,22.584,0,0,0,5.282.751L0,17.659A22.645,22.645,0,0,0,.731,22.926ZM.212,14.444l10.9,10.917A16.016,16.016,0,0,0,24.793,11.681L13.891.764A16.006,16.006,0,0,0,.212,14.444ZM16.2,8.214a.4.4,0,0,1,.57,0l.57.57a.4.4,0,0,1,0,.57l-1.426,1.426,1.426,1.426a.4.4,0,0,1,0,.57l-.57.57a.4.4,0,0,1-.57,0l-1.426-1.426-1.139,1.144,1.426,1.426a.4.4,0,0,1,0,.57l-.57.57a.4.4,0,0,1-.57,0L12.5,14.2l-1.139,1.139,1.426,1.426a.4.4,0,0,1,0,.57l-.57.57a.4.4,0,0,1-.57,0L10.222,16.48,8.8,17.906a.4.4,0,0,1-.57,0l-.57-.57a.4.4,0,0,1,0-.57l1.426-1.426L7.656,13.919a.4.4,0,0,1,0-.57l.57-.57a.4.4,0,0,1,.57,0l1.426,1.426,1.139-1.139L9.934,11.641a.4.4,0,0,1,0-.57l.57-.57a.4.4,0,0,1,.57,0L12.5,11.928l1.139-1.139L12.213,9.363a.4.4,0,0,1,0-.57l.57-.57a.4.4,0,0,1,.57,0L14.778,9.65Z" transform="translate(463 1177.438)"/></g></svg>