<svg xmlns="http://www.w3.org/2000/svg" width="30" height="30" viewBox="0 0 30 30"><path d="M15,0A15,15,0,1,1,0,15,15,15,0,0,1,15,0Z" fill="#575fff"/><path d="M11.789,3.215A3.215,3.215,0,1,0,8.574,6.43,3.215,3.215,0,0,0,11.789,3.215ZM7.823,8.075C5.836,6.858,2.618,6.524,1,6.432a.927.927,0,0,0-1,.907V14.8a.921.921,0,0,0,.887.906,18.016,18.016,0,0,1,6.465,1.388.466.466,0,0,0,.686-.4V8.459a.446.446,0,0,0-.215-.384Zm8.326-1.643c-1.619.092-4.838.426-6.825,1.643a.454.454,0,0,0-.215.39V16.7a.468.468,0,0,0,.688.4,18.023,18.023,0,0,1,6.463-1.387.922.922,0,0,0,.887-.906V7.339A.927.927,0,0,0,16.149,6.432Z" transform="translate(6.683 6.683)" fill="#fff"/></svg>