<svg xmlns="http://www.w3.org/2000/svg" width="30.296" height="30.296" viewBox="0 0 30.296 30.296"><path d="M15.148,0A15.148,15.148,0,1,1,0,15.148,15.148,15.148,0,0,1,15.148,0Z" fill="#575fff"/><path d="M17.83,6.837l-1.406,11.02H11.676l-1.4-11.075h5.8l1.146-3.957.649.2-1.1,3.808,1.061.008ZM9.6,13.212s.178-1.429-2.285-1.429H3.4c-2.459,0-2.285,1.429-2.285,1.429H9.6Zm-8.49,3.215S.94,17.856,3.4,17.856H7.32c2.462,0,2.285-1.429,2.285-1.429H1.114Zm8.122-.714a.822.822,0,0,0,.728-.893.821.821,0,0,0-.728-.893H1.449a.822.822,0,0,0-.729.893.823.823,0,0,0,.729.893H9.236Z" transform="translate(6.121 4.783)" fill="#fff"/></svg>