<svg xmlns="http://www.w3.org/2000/svg" width="50" height="50" viewBox="0 0 50 50"><defs><style>.a{fill:#575fff;}.b{fill:#fff;}</style></defs><g transform="translate(-289 -1288)"><g transform="translate(289 1288)"><path class="a" d="M25,0A25,25,0,1,1,0,25,25,25,0,0,1,25,0Z"/></g><path class="b" d="M25.665,8.674,23.615,24.74H16.693L14.652,8.594H23.1l1.67-5.769.947.285-1.6,5.552,1.547.012ZM13.673,17.969s.259-2.083-3.331-2.083H4.626c-3.584,0-3.331,2.083-3.331,2.083H13.673ZM1.295,22.656S1.041,24.74,4.626,24.74h5.717c3.59,0,3.331-2.083,3.331-2.083H1.295Zm11.841-1.042a1.2,1.2,0,0,0,1.062-1.3,1.2,1.2,0,0,0-1.062-1.3H1.783a1.2,1.2,0,0,0-1.063,1.3,1.2,1.2,0,0,0,1.063,1.3H13.136Z" transform="translate(301.28 1299.175)"/></g></svg>