<svg xmlns="http://www.w3.org/2000/svg" width="30" height="30" viewBox="0 0 30 30"><defs><style>.a{fill:#575fff;}.b{fill:#fff;}</style></defs><path class="a" d="M15,0A15,15,0,1,1,0,15,15,15,0,0,1,15,0Z"/><path class="b" d="M9.11,3.215A1.608,1.608,0,1,0,7.5,1.608,1.608,1.608,0,0,0,9.11,3.215Zm-5.3,7.418-.5,1.156H1.072a1.072,1.072,0,0,0,0,2.144H3.666a1.6,1.6,0,0,0,1.477-.974l.294-.687L5.08,12.06a3.189,3.189,0,0,1-1.272-1.427ZM12.861,7.5H11.387l-.873-1.784A3.214,3.214,0,0,0,8.445,4.012L6.064,3.3a3.2,3.2,0,0,0-2.708.574L2.028,4.9a1.072,1.072,0,0,0,1.3,1.7L4.661,5.579a1.043,1.043,0,0,1,.846-.206L6,5.52,4.745,8.447a2.149,2.149,0,0,0,.881,2.69l2.846,1.68-.92,2.938A1.072,1.072,0,1,0,9.6,16.4l1.06-3.385a1.614,1.614,0,0,0-.725-1.822L7.882,9.979,8.93,7.357l.679,1.388a1.618,1.618,0,0,0,1.444.9h1.808a1.072,1.072,0,1,0,0-2.143Z" transform="translate(8.118 6.683)"/></svg>