<svg xmlns="http://www.w3.org/2000/svg" width="50" height="50" viewBox="0 0 50 50"><defs><style>.a{fill:#575fff;}.b{fill:#fff;}</style></defs><g transform="translate(-639 -1288)"><path class="a" d="M25,0A25,25,0,1,1,0,25,25,25,0,0,1,25,0Z" transform="translate(639 1288)"/><path class="b" d="M13.282,4.688a2.344,2.344,0,1,0-2.344-2.344A2.344,2.344,0,0,0,13.282,4.688ZM5.551,15.5l-.723,1.686H1.563a1.563,1.563,0,0,0,0,3.125H5.344A2.339,2.339,0,0,0,7.5,18.892l.429-1-.521-.308A4.65,4.65,0,0,1,5.551,15.5Zm13.2-4.565H16.6l-1.273-2.6A4.685,4.685,0,0,0,12.312,5.85L8.841,4.818a4.668,4.668,0,0,0-3.947.837L2.956,7.139a1.562,1.562,0,0,0,1.9,2.48L6.8,8.134a1.521,1.521,0,0,1,1.234-.3l.718.213L6.918,12.315A3.133,3.133,0,0,0,8.2,16.236l4.15,2.45L11.011,22.97a1.562,1.562,0,1,0,2.982.934l1.545-4.935a2.354,2.354,0,0,0-1.057-2.656l-2.99-1.765,1.529-3.822.99,2.023a2.358,2.358,0,0,0,2.105,1.313h2.636a1.562,1.562,0,1,0,0-3.125Z" transform="translate(654 1301)"/></g></svg>