<svg xmlns="http://www.w3.org/2000/svg" width="164.188" height="48.313" viewBox="0 0 164.188 48.313"><defs><style>.a{fill:#575fff;}.b{fill:#60d16f;}</style></defs><g transform="translate(0 0.4)"><path class="a" d="M37.747-32.292v9.245H25.2V15.081H13.656V-23.047H1.1v-9.245ZM41.256-3.814A22.505,22.505,0,0,1,43.45-14a16.359,16.359,0,0,1,5.972-6.748,15.592,15.592,0,0,1,8.435-2.362,14.491,14.491,0,0,1,6.984,1.62,11.931,11.931,0,0,1,4.623,4.251v-5.331H81V15.081H69.464V9.75A12.461,12.461,0,0,1,64.774,14a14.491,14.491,0,0,1-6.984,1.62,15.311,15.311,0,0,1-8.368-2.4A16.554,16.554,0,0,1,43.45,6.409,22.719,22.719,0,0,1,41.256-3.814Zm28.208.067a9.435,9.435,0,0,0-2.4-6.816,7.783,7.783,0,0,0-5.837-2.5A7.835,7.835,0,0,0,55.394-10.6,9.315,9.315,0,0,0,53-3.814a9.556,9.556,0,0,0,2.4,6.85,7.734,7.734,0,0,0,5.837,2.531,7.783,7.783,0,0,0,5.837-2.5A9.435,9.435,0,0,0,69.464-3.747ZM104.69,15.621a21.643,21.643,0,0,1-8.773-1.687,14.983,14.983,0,0,1-6.073-4.623,12.159,12.159,0,0,1-2.5-6.58h11.4A4.384,4.384,0,0,0,100.574,5.9a6.447,6.447,0,0,0,3.981,1.215,5.683,5.683,0,0,0,3.34-.844,2.583,2.583,0,0,0,1.181-2.193,2.53,2.53,0,0,0-1.687-2.4,34.082,34.082,0,0,0-5.466-1.721,51.319,51.319,0,0,1-6.748-1.991,11.659,11.659,0,0,1-4.656-3.307,9.012,9.012,0,0,1-1.957-6.107,10.37,10.37,0,0,1,1.788-5.9,12.04,12.04,0,0,1,5.264-4.218,20.155,20.155,0,0,1,8.267-1.552q7.086,0,11.168,3.509a13.654,13.654,0,0,1,4.69,9.313H109.077a4.6,4.6,0,0,0-1.721-3.1,5.969,5.969,0,0,0-3.813-1.147,5.271,5.271,0,0,0-3.1.776,2.478,2.478,0,0,0-1.08,2.126,2.6,2.6,0,0,0,1.721,2.429,27.562,27.562,0,0,0,5.365,1.62,58.693,58.693,0,0,1,6.816,2.126,11.757,11.757,0,0,1,4.623,3.374,9.547,9.547,0,0,1,2.058,6.242,9.907,9.907,0,0,1-1.856,5.9,12.274,12.274,0,0,1-5.331,4.083A20.388,20.388,0,0,1,104.69,15.621Zm45.349-.54L138.567-.71V15.081h-11.54V-6.605h21.659l15.66,21.686Z" transform="translate(-1.104 32.292)"/></g><path class="b" d="M.018,36.584,0,29.177l.018-.018V6.068a5.868,5.868,0,1,1,11.736,0V17.356C19.51,9.532,27.01,1.934,27.01,1.934a6.6,6.6,0,1,1,9.336,9.336L1.163,46.575.018,47.728Z" transform="translate(125.908)"/></svg>