<svg xmlns="http://www.w3.org/2000/svg" width="106.486" height="32.553" viewBox="0 0 106.486 32.553"><g transform="translate(131.257 598.392)"><path d="M24.471-32.292v5.9h-8V-2.082H9.108V-26.4h-8v-5.9Zm2.238,18.16a14.351,14.351,0,0,1,1.4-6.5,10.432,10.432,0,0,1,3.808-4.3A9.943,9.943,0,0,1,37.3-26.439a9.241,9.241,0,0,1,4.454,1.033A7.608,7.608,0,0,1,44.7-22.7v-3.4h7.359V-2.082H44.7v-3.4a7.946,7.946,0,0,1-2.991,2.711,9.241,9.241,0,0,1-4.454,1.033,9.764,9.764,0,0,1-5.336-1.528,10.557,10.557,0,0,1-3.808-4.346A14.488,14.488,0,0,1,26.709-14.132Zm17.988.043a6.016,6.016,0,0,0-1.528-4.346,4.963,4.963,0,0,0-3.722-1.592,5,5,0,0,0-3.722,1.571A5.94,5.94,0,0,0,34.2-14.132a6.094,6.094,0,0,0,1.528,4.368A4.932,4.932,0,0,0,39.447-8.15a4.963,4.963,0,0,0,3.722-1.592A6.016,6.016,0,0,0,44.7-14.089ZM67.161-1.738a13.8,13.8,0,0,1-5.594-1.076,9.554,9.554,0,0,1-3.873-2.948,7.754,7.754,0,0,1-1.592-4.2h7.273a2.8,2.8,0,0,0,1.162,2.023,4.111,4.111,0,0,0,2.539.775A3.624,3.624,0,0,0,69.2-7.7a1.647,1.647,0,0,0,.753-1.4,1.614,1.614,0,0,0-1.076-1.528,21.734,21.734,0,0,0-3.486-1.1,32.726,32.726,0,0,1-4.3-1.269A7.435,7.435,0,0,1,58.124-15.1a5.747,5.747,0,0,1-1.248-3.895,6.613,6.613,0,0,1,1.14-3.765,7.678,7.678,0,0,1,3.357-2.69,12.853,12.853,0,0,1,5.272-.99A10.568,10.568,0,0,1,73.766-24.2a8.707,8.707,0,0,1,2.991,5.939h-6.8a2.93,2.93,0,0,0-1.1-1.98,3.806,3.806,0,0,0-2.431-.732,3.362,3.362,0,0,0-1.98.495,1.58,1.58,0,0,0-.689,1.356,1.655,1.655,0,0,0,1.1,1.549,17.576,17.576,0,0,0,3.421,1.033,37.428,37.428,0,0,1,4.346,1.356,7.5,7.5,0,0,1,2.948,2.152,6.088,6.088,0,0,1,1.313,3.981A6.318,6.318,0,0,1,75.7-5.288a7.827,7.827,0,0,1-3.4,2.6A13,13,0,0,1,67.161-1.738Zm28.919-.344-7.316-10.07v10.07H81.4V-15.912H95.216L105.2-2.082Z" transform="translate(-132.361 -564.101)" fill="#575fff"/><path d="M3.742,0A3.742,3.742,0,0,1,7.484,3.742V22.764L0,30.308V3.742A3.742,3.742,0,0,1,3.742,0Z" transform="translate(-50.954 -596.521)" fill="#60d16f"/><path d="M4.21,0A4.21,4.21,0,0,1,8.42,4.21L8.476,37,.106,28.674C.106,20.488,0,4.21,0,4.21A4.21,4.21,0,0,1,4.21,0Z" transform="translate(-30.765 -598.392) rotate(45)" fill="#60d16f"/></g></svg>