<svg xmlns="http://www.w3.org/2000/svg" width="50" height="50" viewBox="0 0 50 50"><defs><style>.a{fill:#575fff;}.b{fill:#fff;}</style></defs><g transform="translate(-849 -1288)"><path class="a" d="M25,0A25,25,0,1,1,0,25,25,25,0,0,1,25,0Z" transform="translate(849 1288)"/><path class="b" d="M22.922,13.078,24.974,4.05a1.042,1.042,0,0,0-1.016-1.273H6.91L6.512.833A1.042,1.042,0,0,0,5.492,0H1.042A1.042,1.042,0,0,0,0,1.042v.694A1.042,1.042,0,0,0,1.042,2.778H4.075L7.124,17.684a2.431,2.431,0,1,0,2.91.372h9.1a2.43,2.43,0,1,0,2.76-.452l.239-1.054a1.042,1.042,0,0,0-1.016-1.273H9.467l-.284-1.389H21.906A1.042,1.042,0,0,0,22.922,13.078Z" transform="translate(862 1302)"/></g></svg>