<svg xmlns="http://www.w3.org/2000/svg" width="30" height="30" viewBox="0 0 30 30"><defs><style>.a{fill:#575fff;}.b{fill:#fff;}</style></defs><path class="a" d="M15,0A15,15,0,1,1,0,15,15,15,0,0,1,15,0Z"/><path class="b" d="M15.722,8.97,17.13,2.778a.715.715,0,0,0-.7-.873H4.74L4.467.571A.714.714,0,0,0,3.767,0H.714A.714.714,0,0,0,0,.714v.476a.714.714,0,0,0,.714.714h2.08L4.886,12.13a1.667,1.667,0,1,0,2,.255h6.241a1.667,1.667,0,1,0,1.893-.31l.164-.723a.715.715,0,0,0-.7-.873H6.493L6.3,9.527h8.727A.714.714,0,0,0,15.722,8.97Z" transform="translate(6.683 7.438)"/></svg>