<svg xmlns="http://www.w3.org/2000/svg" width="50" height="50" viewBox="0 0 50 50"><defs><style>.a{fill:#575fff;}</style></defs><path class="a" d="M18.2,5.053H5.7v12.5H18.2Zm3.125-3.125v18.75H2.571V1.928Zm-12.5,6.25h6.25v6.25H8.821ZM49.446,5.053h-12.5v12.5h12.5V5.053Zm3.125-3.125v18.75H33.821V1.928h18.75Zm-12.5,6.25h6.25v6.25h-6.25ZM18.2,36.3H5.7V48.8H18.2Zm3.125-3.125v18.75H2.571V33.178Zm-12.5,6.25h6.25v6.25H8.821Zm15.625-37.5h3.125V5.053H24.446Zm3.125,3.125H30.7V8.178H27.571ZM24.446,8.178h3.125V11.3H24.446ZM27.571,11.3H30.7v3.125H27.571Zm-3.125,3.125h3.125v3.125H24.446Zm3.125,3.125H30.7v3.125H27.571Zm-3.125,3.125h3.125V23.8H24.446Zm0,6.25h3.125v3.125H24.446Zm3.125,3.125H30.7v3.125H27.571Zm-3.125,3.125h3.125V36.3H24.446ZM27.571,36.3H30.7v3.125H27.571Zm-3.125,3.125h3.125v3.125H24.446Zm3.125,3.125H30.7v3.125H27.571Zm-3.125,3.125h3.125V48.8H24.446ZM27.571,48.8H30.7v3.125H27.571ZM49.446,26.928h3.125v3.125H49.446Zm-43.75,0H8.821v3.125H5.7ZM8.821,23.8h3.125v3.125H8.821Zm-6.25,0H5.7v3.125H2.571Zm12.5,0H18.2v3.125H15.071ZM18.2,26.928h3.125v3.125H18.2ZM21.321,23.8h3.125v3.125H21.321ZM30.7,26.928h3.125v3.125H30.7ZM33.821,23.8h3.125v3.125H33.821Zm3.125,3.125h3.125v3.125H36.946ZM40.071,23.8H43.2v3.125H40.071ZM43.2,26.928h3.125v3.125H43.2ZM46.321,23.8h3.125v3.125H46.321Zm3.125,9.375h3.125V36.3H49.446Zm-18.75,0h3.125V36.3H30.7Zm3.125-3.125h3.125v3.125H33.821Zm3.125,3.125h3.125V36.3H36.946Zm6.25,0h3.125V36.3H43.2Zm3.125-3.125h3.125v3.125H46.321Zm3.125,9.375h3.125v3.125H49.446Zm-18.75,0h3.125v3.125H30.7ZM33.821,36.3h3.125v3.125H33.821Zm6.25,0H43.2v3.125H40.071ZM43.2,39.428h3.125v3.125H43.2ZM46.321,36.3h3.125v3.125H46.321Zm3.125,9.375h3.125V48.8H49.446ZM33.821,42.553h3.125v3.125H33.821Zm3.125,3.125h3.125V48.8H36.946Zm3.125-3.125H43.2v3.125H40.071ZM43.2,45.678h3.125V48.8H43.2ZM33.821,48.8h3.125v3.125H33.821Zm6.25,0H43.2v3.125H40.071Zm6.25,0h3.125v3.125H46.321Z" transform="translate(-2.571 -1.928)"/></svg>