<svg xmlns="http://www.w3.org/2000/svg" width="30" height="30" viewBox="0 0 30 30"><path d="M11.946,3.8h-7.5v7.5h7.5Zm1.875-1.875v11.25H2.571V1.928Zm-7.5,3.75h3.75v3.75H6.321ZM30.7,3.8H23.2v7.5h7.5V3.8Zm1.875-1.875v11.25H21.321V1.928h11.25Zm-7.5,3.75h3.75v3.75h-3.75ZM11.946,22.553h-7.5v7.5h7.5Zm1.875-1.875v11.25H2.571V20.678Zm-7.5,3.75h3.75v3.75H6.321ZM15.7,1.928h1.875V3.8H15.7ZM17.571,3.8h1.875V5.678H17.571ZM15.7,5.678h1.875V7.553H15.7Zm1.875,1.875h1.875V9.428H17.571ZM15.7,9.428h1.875V11.3H15.7ZM17.571,11.3h1.875v1.875H17.571ZM15.7,13.178h1.875v1.875H15.7Zm0,3.75h1.875V18.8H15.7ZM17.571,18.8h1.875v1.875H17.571ZM15.7,20.678h1.875v1.875H15.7Zm1.875,1.875h1.875v1.875H17.571ZM15.7,24.428h1.875V26.3H15.7ZM17.571,26.3h1.875v1.875H17.571ZM15.7,28.178h1.875v1.875H15.7Zm1.875,1.875h1.875v1.875H17.571ZM30.7,16.928h1.875V18.8H30.7Zm-26.25,0H6.321V18.8H4.446Zm1.875-1.875H8.2v1.875H6.321Zm-3.75,0H4.446v1.875H2.571Zm7.5,0h1.875v1.875H10.071Zm1.875,1.875h1.875V18.8H11.946Zm1.875-1.875H15.7v1.875H13.821Zm5.625,1.875h1.875V18.8H19.446Zm1.875-1.875H23.2v1.875H21.321ZM23.2,16.928h1.875V18.8H23.2Zm1.875-1.875h1.875v1.875H25.071Zm1.875,1.875h1.875V18.8H26.946Zm1.875-1.875H30.7v1.875H28.821ZM30.7,20.678h1.875v1.875H30.7Zm-11.25,0h1.875v1.875H19.446ZM21.321,18.8H23.2v1.875H21.321ZM23.2,20.678h1.875v1.875H23.2Zm3.75,0h1.875v1.875H26.946ZM28.821,18.8H30.7v1.875H28.821ZM30.7,24.428h1.875V26.3H30.7Zm-11.25,0h1.875V26.3H19.446Zm1.875-1.875H23.2v1.875H21.321Zm3.75,0h1.875v1.875H25.071Zm1.875,1.875h1.875V26.3H26.946Zm1.875-1.875H30.7v1.875H28.821ZM30.7,28.178h1.875v1.875H30.7ZM21.321,26.3H23.2v1.875H21.321ZM23.2,28.178h1.875v1.875H23.2ZM25.071,26.3h1.875v1.875H25.071Zm1.875,1.875h1.875v1.875H26.946Zm-5.625,1.875H23.2v1.875H21.321Zm3.75,0h1.875v1.875H25.071Zm3.75,0H30.7v1.875H28.821Z" transform="translate(-2.571 -1.928)" fill="#575fff"/></svg>