<svg xmlns="http://www.w3.org/2000/svg" width="50" height="50" viewBox="0 0 50 50"><defs><style>.a{fill:#575fff;}.b{fill:#fff;}</style></defs><g transform="translate(-919 -1288)"><path class="a" d="M25,0A25,25,0,1,1,0,25,25,25,0,0,1,25,0Z" transform="translate(919 1288)"/><path class="b" d="M22.2,13.979a2.1,2.1,0,0,1,.822-.568l2.236-.913a.927.927,0,0,0,.466-.754V5.364a.814.814,0,0,0-.487-.706S20.554,2.88,17.42,2.88a24.517,24.517,0,0,0-6.949,1.538,5.2,5.2,0,0,1-1,.249l-8.23.884a.606.606,0,0,0-.517.584v4.33a.653.653,0,0,0,.512.617l8.227,1.328a5.872,5.872,0,0,1,1,.278l5.634,1.441a.947.947,0,0,1,.685.57l3.312,9.563a.528.528,0,0,0,.664.327l3.5-1.178a.517.517,0,0,0,.323-.658l-2.3-6.632c-.094-.271-.173-.508-.177-.528l0-.02a1.906,1.906,0,0,1,.1-1.6Zm-4-3.442a2.326,2.326,0,1,1,2.362-2.326A2.343,2.343,0,0,1,18.2,10.537Z" transform="translate(931.28 1299.12)"/></g></svg>