<svg xmlns="http://www.w3.org/2000/svg" width="30" height="30" viewBox="0 0 30 30"><path d="M15,0A15,15,0,1,1,0,15,15,15,0,0,1,15,0Z" fill="#575fff"/><path d="M15.45,10.493a1.441,1.441,0,0,1,.564-.389l1.534-.626a.636.636,0,0,0,.319-.517V4.584a.558.558,0,0,0-.334-.484,19.479,19.479,0,0,0-5.359-1.22A16.817,16.817,0,0,0,7.408,3.935a3.568,3.568,0,0,1-.688.171l-5.645.607a.415.415,0,0,0-.355.4v2.97a.448.448,0,0,0,.351.423l5.643.911a4.027,4.027,0,0,1,.684.19l3.864.989a.65.65,0,0,1,.47.391L14,17.547a.362.362,0,0,0,.455.224l2.4-.808a.354.354,0,0,0,.222-.452l-1.577-4.549c-.064-.186-.119-.349-.121-.362l0-.014a1.307,1.307,0,0,1,.068-1.094ZM12.709,8.132a1.6,1.6,0,1,1,1.62-1.6A1.607,1.607,0,0,1,12.709,8.132Z" transform="translate(5.963 4.595)" fill="#fff"/></svg>