<svg xmlns="http://www.w3.org/2000/svg" width="30.296" height="30.296" viewBox="0 0 30.296 30.296"><g transform="translate(-0.413 -0.141)"><g transform="translate(0.413 0.141)"><path d="M15.148,0A15.148,15.148,0,1,1,0,15.148,15.148,15.148,0,0,1,15.148,0Z" fill="#575fff"/></g><path d="M18.433,6.43H15V4.715A1.709,1.709,0,0,0,13.289,3H9.859A1.709,1.709,0,0,0,8.144,4.715V6.43H4.715A1.7,1.7,0,0,0,3.009,8.144L3,17.576A1.709,1.709,0,0,0,4.715,19.29H18.433a1.709,1.709,0,0,0,1.715-1.715V8.144A1.709,1.709,0,0,0,18.433,6.43Zm-5.144,0H9.859V4.715h3.43Z" transform="translate(3.898 3.935)" fill="#fff"/></g></svg>