<svg xmlns="http://www.w3.org/2000/svg" width="50" height="50" viewBox="0 0 50 50"><defs><style>.a{fill:#575fff;}.b{fill:#fff;}</style></defs><g transform="translate(-359 -1288)"><g transform="translate(359 1288)"><path class="a" d="M25,0A25,25,0,1,1,0,25,25,25,0,0,1,25,0Z"/></g><path class="b" d="M25.5,8h-5V5.5A2.491,2.491,0,0,0,18,3H13a2.491,2.491,0,0,0-2.5,2.5V8h-5a2.481,2.481,0,0,0-2.487,2.5L3,24.25a2.491,2.491,0,0,0,2.5,2.5h20a2.491,2.491,0,0,0,2.5-2.5V10.5A2.491,2.491,0,0,0,25.5,8ZM18,8H13V5.5h5Z" transform="translate(369 1298)"/></g></svg>