<svg xmlns="http://www.w3.org/2000/svg" width="30" height="30" viewBox="0 0 30 30"><path d="M15,0A15,15,0,1,1,0,15,15,15,0,0,1,15,0Z" fill="#575fff"/><path d="M16.719,13.4H.429A.429.429,0,0,0,0,13.824v.857a.429.429,0,0,0,.429.429h16.29a.429.429,0,0,0,.429-.429v-.857A.429.429,0,0,0,16.719,13.4ZM2.158,10.536a.884.884,0,0,0,.652.287l3.5,0a1.758,1.758,0,0,0,.794-.191l7.8-3.956a4.555,4.555,0,0,0,1.8-1.562c.491-.763.544-1.315.35-1.705s-.663-.677-1.561-.735a4.5,4.5,0,0,0-2.312.522L10.531,4.529l-5.86-2.2a.477.477,0,0,0-.482-.03L2.428,3.2a.49.49,0,0,0-.139.764L6.475,6.588,3.71,7.991,1.771,7.014a.477.477,0,0,0-.431,0L.265,7.561a.49.49,0,0,0-.149.752Z" transform="translate(6.683 6.526)" fill="#fff"/></svg>