<svg xmlns="http://www.w3.org/2000/svg" width="50" height="50" viewBox="0 0 50 50"><defs><style>.a{fill:#575fff;}.b{fill:#fff;}</style></defs><g transform="translate(-429 -1288)"><path class="a" d="M25,0A25,25,0,1,1,0,25,25,25,0,0,1,25,0Z" transform="translate(429 1288)"/><path class="b" d="M24.374,18.5H.625A.625.625,0,0,0,0,19.124v1.25A.625.625,0,0,0,.625,21h23.75A.625.625,0,0,0,25,20.374v-1.25A.625.625,0,0,0,24.374,18.5ZM3.146,14.33a1.288,1.288,0,0,0,.95.418l5.1-.007a2.563,2.563,0,0,0,1.158-.278L21.719,8.7a6.64,6.64,0,0,0,2.618-2.278c.715-1.112.793-1.918.511-2.486s-.966-.987-2.275-1.072a6.561,6.561,0,0,0-3.37.761L15.354,5.574,6.811,2.368a.7.7,0,0,0-.7-.043L3.54,3.628a.714.714,0,0,0-.2,1.114l6.1,3.832L5.408,10.621,2.582,9.2a.7.7,0,0,0-.628,0l-1.568.8a.714.714,0,0,0-.218,1.1Z" transform="translate(442 1301.75)"/></g></svg>